<svg id="icon" width="1024" height="1024" viewBox="0 0 1024 1024" xmlns="http://www.w3.org/2000/svg">
  <defs>
    <linearGradient id="tile" x1="0.12" y1="0.04" x2="0.88" y2="0.96">
      <stop offset="0" stop-color="#FFFFFF"/>
      <stop offset="1" stop-color="#EEF4F3"/>
    </linearGradient>
    <linearGradient id="shell" x1="0.18" y1="0" x2="0.82" y2="1">
      <stop offset="0" stop-color="#FFFFFF"/>
      <stop offset="1" stop-color="#DCE5E4"/>
    </linearGradient>
    <linearGradient id="mark" x1="0" y1="0" x2="0.7" y2="1">
      <stop offset="0" stop-color="#1BB59E"/>
      <stop offset="1" stop-color="#087F70"/>
    </linearGradient>
    <radialGradient id="screen" cx="0.5" cy="0.25" r="0.9">
      <stop offset="0" stop-color="#26363B"/>
      <stop offset="1" stop-color="#152126"/>
    </radialGradient>
    <filter id="shadow" x="-24%" y="-24%" width="148%" height="166%">
      <feDropShadow dx="0" dy="20" stdDeviation="22" flood-color="#172126" flood-opacity="0.2"/>
    </filter>
  </defs>

  <rect x="112" y="112" width="800" height="800" rx="188" fill="url(#tile)"/>
  <rect x="113.5" y="113.5" width="797" height="797" rx="186.5" fill="none" stroke="#B8D8D3" stroke-width="3"/>

  <g filter="url(#shadow)">
    <rect x="478" y="237" width="68" height="50" rx="21" fill="#344349"/>
    <rect x="496" y="193" width="32" height="64" rx="16" fill="#6E7C80"/>
    <path d="M512 137 C522 170 534 182 567 192 C534 202 522 214 512 247 C502 214 490 202 457 192 C490 182 502 170 512 137Z" fill="url(#mark)"/>

    <rect x="185" y="432" width="86" height="184" rx="42" fill="#344349"/>
    <rect x="753" y="432" width="86" height="184" rx="42" fill="#344349"/>
    <rect x="202" y="458" width="42" height="132" rx="21" fill="#536267"/>
    <rect x="780" y="458" width="42" height="132" rx="21" fill="#536267"/>

    <rect x="226" y="292" width="572" height="494" rx="154" fill="url(#shell)" stroke="#C7D2D2" stroke-width="5"/>
    <rect x="272" y="374" width="480" height="306" rx="92" fill="url(#screen)" stroke="#0F191D" stroke-width="7"/>
    <path d="M300 422 C382 384 642 384 724 422" fill="none" stroke="#FFFFFF" stroke-opacity="0.08" stroke-width="18" stroke-linecap="round"/>

    <g fill="url(#mark)">
      <rect x="356" y="447" width="54" height="166" rx="27"/>
      <rect x="356" y="447" width="130" height="54" rx="27"/>
      <rect x="356" y="503" width="108" height="54" rx="27"/>
      <rect x="356" y="559" width="130" height="54" rx="27"/>
    </g>
    <path d="M590 468 L658 530 L590 592" fill="none" stroke="#FFFFFF" stroke-width="42" stroke-linecap="round" stroke-linejoin="round"/>

    <rect x="418" y="758" width="188" height="50" rx="25" fill="#344349"/>
    <rect x="452" y="770" width="120" height="22" rx="11" fill="#536267"/>
  </g>
</svg>
