  <svg id="icon" width="1024" height="1024" viewBox="0 0 1024 1024" xmlns="http://www.w3.org/2000/svg">
    <defs>
      <linearGradient id="bg" x1="0.1" y1="0" x2="0.9" y2="1"><stop offset="0" stop-color="#ffffff"/><stop offset="1" stop-color="#EDEEF4"/></linearGradient>
      <radialGradient id="glow" cx="0.5" cy="0.46" r="0.55"><stop offset="0" stop-color="#5256E0" stop-opacity="0.14"/><stop offset="1" stop-color="#5256E0" stop-opacity="0"/></radialGradient>
      <linearGradient id="mark" x1="0" y1="0" x2="0.4" y2="1"><stop offset="0" stop-color="#5B5FEA"/><stop offset="1" stop-color="#4145CE"/></linearGradient>
      <filter id="ds" x="-25%" y="-25%" width="150%" height="165%"><feDropShadow dx="0" dy="12" stdDeviation="16" flood-color="#3A3FC0" flood-opacity="0.26"/></filter>
    </defs>
    <rect x="112" y="112" width="800" height="800" rx="188" fill="url(#bg)"/>
    <rect x="113.5" y="113.5" width="797" height="797" rx="186.5" fill="none" stroke="#D6DAE6" stroke-width="3"/>
    <circle cx="500" cy="512" r="300" fill="url(#glow)"/>
    <g filter="url(#ds)" fill="url(#mark)">
      <rect x="330" y="300" width="98" height="424" rx="49"/>
      <rect x="330" y="300" width="300" height="98" rx="49"/>
      <rect x="330" y="463" width="232" height="98" rx="49"/>
      <rect x="330" y="626" width="300" height="98" rx="49"/>
    </g>
    <path d="M704 300 C715 348 731 364 779 375 C731 386 715 402 704 450 C693 402 677 386 629 375 C677 364 693 348 704 300 Z" fill="#5256E0"/>
    <path d="M662 470 C668 494 678 504 702 510 C678 516 668 526 662 550 C656 526 646 516 622 510 C646 504 656 494 662 470 Z" fill="#5256E0" opacity="0.8"/>
  </svg>
